  0
SECTION
  2
HEADER
  9
$ACADVER
  1
AC1009
  9
$DWGCODEPAGE
  3
ansi_1252
  9
$INSBASE
 10
0.0
 20
0.0
 30
0.0
  9
$EXTMIN
 10
246.218902391199
 20
-384.509602035089
 30
0.0
  9
$EXTMAX
 10
307.6768622308961
 20
-273.2673183812683
 30
0.0
  9
$LIMMIN
 10
0.0
 20
0.0
  9
$LIMMAX
 10
12.0
 20
9.0
  9
$ORTHOMODE
 70
     0
  9
$REGENMODE
 70
     1
  9
$FILLMODE
 70
     1
  9
$QTEXTMODE
 70
     0
  9
$MIRRTEXT
 70
     1
  9
$DRAGMODE
 70
     2
  9
$LTSCALE
 40
1.0
  9
$OSMODE
 70
    37
  9
$ATTMODE
 70
     1
  9
$TEXTSIZE
 40
0.2
  9
$TRACEWID
 40
0.05
  9
$TEXTSTYLE
  7
STANDARD
  9
$CLAYER
  8
0
  9
$CELTYPE
  6
BYLAYER
  9
$CECOLOR
 62
   256
  9
$DIMSCALE
 40
1.0
  9
$DIMASZ
 40
0.18
  9
$DIMEXO
 40
0.0625
  9
$DIMDLI
 40
0.38
  9
$DIMRND
 40
0.0
  9
$DIMDLE
 40
0.0
  9
$DIMEXE
 40
0.18
  9
$DIMTP
 40
0.0
  9
$DIMTM
 40
0.0
  9
$DIMTXT
 40
0.18
  9
$DIMCEN
 40
0.09
  9
$DIMTSZ
 40
0.0
  9
$DIMTOL
 70
     0
  9
$DIMLIM
 70
     0
  9
$DIMTIH
 70
     1
  9
$DIMTOH
 70
     1
  9
$DIMSE1
 70
     0
  9
$DIMSE2
 70
     0
  9
$DIMTAD
 70
     0
  9
$DIMZIN
 70
     0
  9
$DIMBLK
  1

  9
$DIMASO
 70
     1
  9
$DIMSHO
 70
     1
  9
$DIMPOST
  1

  9
$DIMAPOST
  1

  9
$DIMALT
 70
     0
  9
$DIMALTD
 70
     2
  9
$DIMALTF
 40
25.4
  9
$DIMLFAC
 40
1.0
  9
$DIMTOFL
 70
     0
  9
$DIMTVP
 40
0.0
  9
$DIMTIX
 70
     0
  9
$DIMSOXD
 70
     0
  9
$DIMSAH
 70
     0
  9
$DIMBLK1
  1

  9
$DIMBLK2
  1

  9
$DIMSTYLE
  2
STANDARD
  9
$DIMCLRD
 70
     0
  9
$DIMCLRE
 70
     0
  9
$DIMCLRT
 70
     0
  9
$DIMTFAC
 40
1.0
  9
$DIMGAP
 40
0.09
  9
$LUNITS
 70
     2
  9
$LUPREC
 70
     4
  9
$SKETCHINC
 40
0.1
  9
$FILLETRAD
 40
0.5
  9
$AUNITS
 70
     0
  9
$AUPREC
 70
     0
  9
$MENU
  1
.
  9
$ELEVATION
 40
0.0
  9
$PELEVATION
 40
0.0
  9
$THICKNESS
 40
0.0
  9
$LIMCHECK
 70
     0
  9
$CHAMFERA
 40
0.0
  9
$CHAMFERB
 40
0.0
  9
$SKPOLY
 70
     0
  9
$TDCREATE
 40
2454910.5
  9
$TDUPDATE
 40
2460802.364389282
  9
$TDINDWG
 40
0.0000000116
  9
$TDUSRTIMER
 40
0.0000000116
  9
$USRTIMER
 70
     1
  9
$ANGBASE
 50
0.0
  9
$ANGDIR
 70
     0
  9
$PDMODE
 70
     0
  9
$PDSIZE
 40
0.0
  9
$PLINEWID
 40
0.0
  9
$COORDS
 70
     1
  9
$SPLFRAME
 70
     0
  9
$SPLINETYPE
 70
     6
  9
$SPLINESEGS
 70
     8
  9
$ATTDIA
 70
     0
  9
$ATTREQ
 70
     1
  9
$HANDLING
 70
     1
  9
$HANDSEED
  5
112
  9
$SURFTAB1
 70
     6
  9
$SURFTAB2
 70
     6
  9
$SURFTYPE
 70
     6
  9
$SURFU
 70
     6
  9
$SURFV
 70
     6
  9
$UCSNAME
  2

  9
$UCSORG
 10
0.0
 20
0.0
 30
0.0
  9
$UCSXDIR
 10
1.0
 20
0.0
 30
0.0
  9
$UCSYDIR
 10
0.0
 20
1.0
 30
0.0
  9
$PUCSNAME
  2

  9
$PUCSORG
 10
0.0
 20
0.0
 30
0.0
  9
$PUCSXDIR
 10
1.0
 20
0.0
 30
0.0
  9
$PUCSYDIR
 10
0.0
 20
1.0
 30
0.0
  9
$USERI1
 70
     0
  9
$USERI2
 70
     0
  9
$USERI3
 70
     0
  9
$USERI4
 70
     0
  9
$USERI5
 70
     0
  9
$USERR1
 40
0.0
  9
$USERR2
 40
0.0
  9
$USERR3
 40
0.0
  9
$USERR4
 40
0.0
  9
$USERR5
 40
0.0
  9
$WORLDVIEW
 70
     1
  9
$SHADEDGE
 70
     3
  9
$SHADEDIF
 70
    70
  9
$TILEMODE
 70
     1
  9
$MAXACTVP
 70
    64
  9
$PLIMCHECK
 70
     0
  9
$PEXTMIN
 10
1.000000000000000E+20
 20
1.000000000000000E+20
 30
1.000000000000000E+20
  9
$PEXTMAX
 10
-1.000000000000000E+20
 20
-1.000000000000000E+20
 30
-1.000000000000000E+20
  9
$PLIMMIN
 10
0.0
 20
0.0
  9
$PLIMMAX
 10
12.0
 20
9.0
  9
$UNITMODE
 70
     0
  9
$VISRETAIN
 70
     1
  9
$PLINEGEN
 70
     0
  9
$PSLTSCALE
 70
     1
  0
ENDSEC
  0
SECTION
  2
TABLES
  0
TABLE
  2
VPORT
 70
     1
  0
VPORT
  2
*ACTIVE
 70
     0
 10
0.0
 20
0.0
 11
1.0
 21
1.0
 12
10.42990654205607
 22
4.5
 13
0.0
 23
0.0
 14
0.5
 24
0.5
 15
0.5
 25
0.5
 16
0.0
 26
0.0
 36
1.0
 17
0.0
 27
0.0
 37
0.0
 40
9.0
 41
1.972972972850329
 42
50.0
 43
0.0
 44
0.0
 50
0.0
 51
0.0
 71
     0
 72
   100
 73
     1
 74
     3
 75
     0
 76
     0
 77
     0
 78
     0
  0
ENDTAB
  0
TABLE
  2
LTYPE
 70
     2
  0
LTYPE
  2
CONTINUOUS
 70
     0
  3
Solid line
 72
    65
 73
     0
 40
0.0
  0
LTYPE
  2
CONTINUOUS2
 70
     0
  3
Solid Line
 72
    65
 73
     0
 40
0.0
  0
ENDTAB
  0
TABLE
  2
LAYER
 70
     2
  0
LAYER
  2
0
 70
     0
 62
     7
  6
CONTINUOUS
  0
LAYER
  2
CUT_1_5_FINAL
 70
     0
 62
     7
  6
CONTINUOUS
  0
ENDTAB
  0
TABLE
  2
STYLE
 70
     1
  0
STYLE
  2
STANDARD
 70
     0
 40
0.0
 41
1.0
 50
0.0
 71
     0
 42
0.2
  3
txt
  4

  0
ENDTAB
  0
TABLE
  2
VIEW
 70
     0
  0
ENDTAB
  0
TABLE
  2
UCS
 70
     0
  0
ENDTAB
  0
TABLE
  2
APPID
 70
     1
  0
APPID
  2
ACAD
 70
     0
  0
ENDTAB
  0
TABLE
  2
DIMSTYLE
 70
     1
  0
DIMSTYLE
  2
STANDARD
 70
     0
  3

  4

  5

  6

  7

 40
1.0
 41
0.18
 42
0.0625
 43
0.38
 44
0.18
 45
0.0
 46
0.0
 47
0.0
 48
0.0
140
0.18
141
0.09
142
0.0
143
25.4
144
1.0
145
0.0
146
1.0
147
0.09
 71
     0
 72
     0
 73
     1
 74
     1
 75
     0
 76
     0
 77
     0
 78
     0
170
     0
171
     2
172
     0
173
     0
174
     0
175
     0
176
     0
177
     0
178
     0
  0
ENDTAB
  0
ENDSEC
  0
SECTION
  2
BLOCKS
  0
BLOCK
  8
0
  2
$MODEL_SPACE
 70
     0
 10
0.0
 20
0.0
 30
0.0
  3
$MODEL_SPACE
  1

  0
ENDBLK
  5
21
  8
0
  0
BLOCK
 67
     1
  8
0
  2
$PAPER_SPACE
 70
     0
 10
0.0
 20
0.0
 30
0.0
  3
$PAPER_SPACE
  1

  0
ENDBLK
  5
1D
 67
     1
  8
0
  0
ENDSEC
  0
SECTION
  2
ENTITIES
  0
POLYLINE
  5
70
  8
CUT_1_5_FINAL
 66
     1
 10
0.0
 20
0.0
 30
0.0
 70
     1
  0
VERTEX
  5
7F
  8
CUT_1_5_FINAL
 10
250.6768622308957
 20
-319.6473625593684
 30
0.0
  0
VERTEX
  5
80
  8
CUT_1_5_FINAL
 10
250.6768622308957
 20
-329.3052637022537
 30
0.0
 42
0.2000194443800147
  0
VERTEX
  5
81
  8
CUT_1_5_FINAL
 10
250.9697463807787
 20
-330.016629332409
 30
0.0
  0
VERTEX
  5
82
  8
CUT_1_5_FINAL
 10
259.7382180797113
 20
-338.7851010313594
 30
0.0
  0
VERTEX
  5
83
  8
CUT_1_5_FINAL
 10
267.4195251233972
 20
-346.4664080750608
 30
0.0
  0
VERTEX
  5
84
  8
CUT_1_5_FINAL
 10
266.7067214509671
 20
-347.179211747491
 30
0.0
  0
VERTEX
  5
85
  8
CUT_1_5_FINAL
 10
257.8306024765137
 20
-338.3030927730376
 30
0.0
 42
0.1991318973469963
  0
VERTEX
  5
86
  8
CUT_1_5_FINAL
 10
257.1228986806432
 20
-338.0096020350889
 30
0.0
  0
VERTEX
  5
87
  8
CUT_1_5_FINAL
 10
247.7189023911991
 20
-338.0096020350889
 30
0.0
  0
VERTEX
  5
88
  8
CUT_1_5_FINAL
 10
247.7189023911991
 20
-341.1406890757077
 30
0.0
  0
VERTEX
  5
89
  8
CUT_1_5_FINAL
 10
246.2189023911992
 20
-341.1406890757078
 30
0.0
  0
VERTEX
  5
8A
  8
CUT_1_5_FINAL
 10
246.2189023911992
 20
-347.1406890757077
 30
0.0
  0
VERTEX
  5
8B
  8
CUT_1_5_FINAL
 10
247.718902391199
 20
-347.1406890757075
 30
0.0
  0
VERTEX
  5
8C
  8
CUT_1_5_FINAL
 10
247.7189023911992
 20
-353.3263757294796
 30
0.0
  0
VERTEX
  5
8D
  8
CUT_1_5_FINAL
 10
246.2189023911991
 20
-353.3263757294795
 30
0.0
  0
VERTEX
  5
8E
  8
CUT_1_5_FINAL
 10
246.218902391199
 20
-359.3263757294801
 30
0.0
  0
VERTEX
  5
8F
  8
CUT_1_5_FINAL
 10
247.7189023911992
 20
-359.3263757294794
 30
0.0
  0
VERTEX
  5
90
  8
CUT_1_5_FINAL
 10
247.7189023911992
 20
-365.0246349171007
 30
0.0
  0
VERTEX
  5
91
  8
CUT_1_5_FINAL
 10
246.2189023911991
 20
-365.0246349171007
 30
0.0
  0
VERTEX
  5
92
  8
CUT_1_5_FINAL
 10
246.2189023911992
 20
-371.0246349171007
 30
0.0
  0
VERTEX
  5
93
  8
CUT_1_5_FINAL
 10
247.7189023911991
 20
-371.0246349171007
 30
0.0
  0
VERTEX
  5
94
  8
CUT_1_5_FINAL
 10
247.7189023911991
 20
-383.0096020350887
 30
0.0
  0
VERTEX
  5
95
  8
CUT_1_5_FINAL
 10
250.6102581914892
 20
-383.0096020350887
 30
0.0
  0
VERTEX
  5
96
  8
CUT_1_5_FINAL
 10
255.2271711508702
 20
-383.0096020350887
 30
0.0
  0
VERTEX
  5
97
  8
CUT_1_5_FINAL
 10
261.8405870116054
 20
-383.0096020350888
 30
0.0
  0
VERTEX
  5
98
  8
CUT_1_5_FINAL
 10
261.8405870116045
 20
-384.5096020350888
 30
0.0
  0
VERTEX
  5
99
  8
CUT_1_5_FINAL
 10
266.4574999709877
 20
-384.509602035089
 30
0.0
  0
VERTEX
  5
9A
  8
CUT_1_5_FINAL
 10
266.4574999709862
 20
-383.0096020350888
 30
0.0
  0
VERTEX
  5
9B
  8
CUT_1_5_FINAL
 10
272.8213529690522
 20
-383.0096020350888
 30
0.0
  0
VERTEX
  5
9C
  8
CUT_1_5_FINAL
 10
272.821352969052
 20
-384.5096020350888
 30
0.0
  0
VERTEX
  5
9D
  8
CUT_1_5_FINAL
 10
277.438265928433
 20
-384.5096020350888
 30
0.0
  0
VERTEX
  5
9E
  8
CUT_1_5_FINAL
 10
277.4382659284329
 20
-383.0096020350888
 30
0.0
  0
VERTEX
  5
9F
  8
CUT_1_5_FINAL
 10
281.8056160251448
 20
-383.0096020350888
 30
0.0
  0
VERTEX
  5
A0
  8
CUT_1_5_FINAL
 10
281.8056160251444
 20
-384.5096020350888
 30
0.0
  0
VERTEX
  5
A1
  8
CUT_1_5_FINAL
 10
286.4225289845261
 20
-384.509602035089
 30
0.0
  0
VERTEX
  5
A2
  8
CUT_1_5_FINAL
 10
286.4225289845259
 20
-383.0096020350888
 30
0.0
  0
VERTEX
  5
A3
  8
CUT_1_5_FINAL
 10
290.2189023911992
 20
-383.0096020350889
 30
0.0
  0
VERTEX
  5
A4
  8
CUT_1_5_FINAL
 10
290.2189023911992
 20
-375.2223479302381
 30
0.0
  0
VERTEX
  5
A5
  8
CUT_1_5_FINAL
 10
290.2189023911992
 20
-371.1099953324699
 30
0.0
 42
0.2000508124117475
  0
VERTEX
  5
A6
  8
CUT_1_5_FINAL
 10
289.9260187624318
 20
-370.3985090589557
 30
0.0
  0
VERTEX
  5
A7
  8
CUT_1_5_FINAL
 10
272.1867990051613
 20
-352.6592893016851
 30
0.0
  0
VERTEX
  5
A8
  8
CUT_1_5_FINAL
 10
272.8996026775862
 20
-351.9464856292602
 30
0.0
  0
VERTEX
  5
A9
  8
CUT_1_5_FINAL
 10
281.4275518008521
 20
-360.474434752544
 30
0.0
 42
0.2000508164916836
  0
VERTEX
  5
AA
  8
CUT_1_5_FINAL
 10
282.1390380901854
 20
-360.7673183812683
 30
0.0
  0
VERTEX
  5
AB
  8
CUT_1_5_FINAL
 10
297.6768622308958
 20
-360.7673183812684
 30
0.0
  0
VERTEX
  5
AC
  8
CUT_1_5_FINAL
 10
297.6768658305826
 20
-357.6362313406505
 30
0.0
  0
VERTEX
  5
AD
  8
CUT_1_5_FINAL
 10
297.6768622308957
 20
-357.6362313406493
 30
0.0
  0
VERTEX
  5
AE
  8
CUT_1_5_FINAL
 10
296.1768622308957
 20
-357.6362313406494
 30
0.0
  0
VERTEX
  5
AF
  8
CUT_1_5_FINAL
 10
296.1768622308957
 20
-351.6362313406494
 30
0.0
  0
VERTEX
  5
B0
  8
CUT_1_5_FINAL
 10
297.6768622308957
 20
-351.6362313406499
 30
0.0
  0
VERTEX
  5
B1
  8
CUT_1_5_FINAL
 10
297.6768622308957
 20
-345.4505446868776
 30
0.0
  0
VERTEX
  5
B2
  8
CUT_1_5_FINAL
 10
296.1768622308957
 20
-345.4505446868775
 30
0.0
  0
VERTEX
  5
B3
  8
CUT_1_5_FINAL
 10
296.1768622308957
 20
-339.4505446868775
 30
0.0
  0
VERTEX
  5
B4
  8
CUT_1_5_FINAL
 10
297.6768622308957
 20
-339.4505446868775
 30
0.0
  0
VERTEX
  5
B5
  8
CUT_1_5_FINAL
 10
297.6768622308957
 20
-333.7522854992566
 30
0.0
  0
VERTEX
  5
B6
  8
CUT_1_5_FINAL
 10
296.1768622308958
 20
-333.7522854992563
 30
0.0
  0
VERTEX
  5
B7
  8
CUT_1_5_FINAL
 10
296.1768622308958
 20
-327.7522854992564
 30
0.0
  0
VERTEX
  5
B8
  8
CUT_1_5_FINAL
 10
297.6768924242554
 20
-327.752285499256
 30
0.0
  0
VERTEX
  5
B9
  8
CUT_1_5_FINAL
 10
298.176890543307
 20
-327.752285499256
 30
0.0
  0
VERTEX
  5
BA
  8
CUT_1_5_FINAL
 10
298.1768771018601
 20
-325.7673183812683
 30
0.0
  0
VERTEX
  5
BB
  8
CUT_1_5_FINAL
 10
306.6768622308958
 20
-325.7673183812682
 30
0.0
  0
VERTEX
  5
BC
  8
CUT_1_5_FINAL
 10
306.7791064218469
 20
-325.7613810609079
 30
0.0
  0
VERTEX
  5
BD
  8
CUT_1_5_FINAL
 10
306.8783971102418
 20
-325.7439544685894
 30
0.0
  0
VERTEX
  5
BE
  8
CUT_1_5_FINAL
 10
306.9742316411724
 20
-325.7156166574571
 30
0.0
  0
VERTEX
  5
BF
  8
CUT_1_5_FINAL
 10
307.0661073597307
 20
-325.676945680655
 30
0.0
  0
VERTEX
  5
C0
  8
CUT_1_5_FINAL
 10
307.1535216110088
 20
-325.6285195913275
 30
0.0
  0
VERTEX
  5
C1
  8
CUT_1_5_FINAL
 10
307.2359717400988
 20
-325.5709164426185
 30
0.0
  0
VERTEX
  5
C2
  8
CUT_1_5_FINAL
 10
307.3129550920926
 20
-325.5047142876722
 30
0.0
  0
VERTEX
  5
C3
  8
CUT_1_5_FINAL
 10
307.3839690120824
 20
-325.4304911796329
 30
0.0
  0
VERTEX
  5
C4
  8
CUT_1_5_FINAL
 10
307.4485108451601
 20
-325.3488251716448
 30
0.0
  0
VERTEX
  5
C5
  8
CUT_1_5_FINAL
 10
307.5060779364176
 20
-325.2602943168519
 30
0.0
  0
VERTEX
  5
C6
  8
CUT_1_5_FINAL
 10
307.5561676309471
 20
-325.1654766683984
 30
0.0
  0
VERTEX
  5
C7
  8
CUT_1_5_FINAL
 10
307.5982772738407
 20
-325.0649502794285
 30
0.0
  0
VERTEX
  5
C8
  8
CUT_1_5_FINAL
 10
307.6319042101903
 20
-324.9592932030864
 30
0.0
  0
VERTEX
  5
C9
  8
CUT_1_5_FINAL
 10
307.656545785088
 20
-324.8490834925162
 30
0.0
  0
VERTEX
  5
CA
  8
CUT_1_5_FINAL
 10
307.6716993436257
 20
-324.7348992008622
 30
0.0
  0
VERTEX
  5
CB
  8
CUT_1_5_FINAL
 10
307.6768622308956
 20
-324.6173183812683
 30
0.0
  0
VERTEX
  5
CC
  8
CUT_1_5_FINAL
 10
307.6768622308957
 20
-319.6473625593684
 30
0.0
  0
VERTEX
  5
CD
  8
CUT_1_5_FINAL
 10
307.6768622308961
 20
-316.267318381267
 30
0.0
  0
VERTEX
  5
CE
  8
CUT_1_5_FINAL
 10
306.6768622308963
 20
-316.2673183812683
 30
0.0
  0
VERTEX
  5
CF
  8
CUT_1_5_FINAL
 10
306.6768622308963
 20
-315.2673183812683
 30
0.0
  0
VERTEX
  5
D0
  8
CUT_1_5_FINAL
 10
307.6768622308957
 20
-315.267318381267
 30
0.0
  0
VERTEX
  5
D1
  8
CUT_1_5_FINAL
 10
307.6768622308957
 20
-307.2673183812694
 30
0.0
 42
0.4142135623731065
  0
VERTEX
  5
D2
  8
CUT_1_5_FINAL
 10
306.6768622308957
 20
-306.2673183812694
 30
0.0
  0
VERTEX
  5
D3
  8
CUT_1_5_FINAL
 10
298.1768622308957
 20
-306.2673183812694
 30
0.0
  0
VERTEX
  5
D4
  8
CUT_1_5_FINAL
 10
298.1768622308958
 20
-301.6456362111473
 30
0.0
  0
VERTEX
  5
D5
  8
CUT_1_5_FINAL
 10
297.6768362779703
 20
-301.6456337608621
 30
0.0
  0
VERTEX
  5
D6
  8
CUT_1_5_FINAL
 10
296.1768622308957
 20
-301.6456337608621
 30
0.0
  0
VERTEX
  5
D7
  8
CUT_1_5_FINAL
 10
296.1768622308957
 20
-297.028720801481
 30
0.0
  0
VERTEX
  5
D8
  8
CUT_1_5_FINAL
 10
297.6768405002927
 20
-297.0287208014812
 30
0.0
  0
VERTEX
  5
D9
  8
CUT_1_5_FINAL
 10
297.6768622308957
 20
-297.0287208014812
 30
0.0
  0
VERTEX
  5
DA
  8
CUT_1_5_FINAL
 10
297.6768622308957
 20
-290.6648678034007
 30
0.0
  0
VERTEX
  5
DB
  8
CUT_1_5_FINAL
 10
297.6768463202506
 20
-290.6648678033862
 30
0.0
  0
VERTEX
  5
DC
  8
CUT_1_5_FINAL
 10
296.1768622308957
 20
-290.6648678034153
 30
0.0
  0
VERTEX
  5
DD
  8
CUT_1_5_FINAL
 10
296.1768622308957
 20
-286.0479548440344
 30
0.0
  0
VERTEX
  5
DE
  8
CUT_1_5_FINAL
 10
297.676850542573
 20
-286.0479548440343
 30
0.0
  0
VERTEX
  5
DF
  8
CUT_1_5_FINAL
 10
297.6768622308957
 20
-286.0479548440343
 30
0.0
  0
VERTEX
  5
E0
  8
CUT_1_5_FINAL
 10
297.6768622308957
 20
-281.6806047436138
 30
0.0
  0
VERTEX
  5
E1
  8
CUT_1_5_FINAL
 10
297.6768545366619
 20
-281.6806047473084
 30
0.0
  0
VERTEX
  5
E2
  8
CUT_1_5_FINAL
 10
296.1768622308957
 20
-281.6806047473225
 30
0.0
  0
VERTEX
  5
E3
  8
CUT_1_5_FINAL
 10
296.1768622308957
 20
-277.0636917879416
 30
0.0
  0
VERTEX
  5
E4
  8
CUT_1_5_FINAL
 10
297.6768604949399
 20
-277.0636917879416
 30
0.0
  0
VERTEX
  5
E5
  8
CUT_1_5_FINAL
 10
297.6768622308957
 20
-273.2673183812683
 30
0.0
  0
VERTEX
  5
E6
  8
CUT_1_5_FINAL
 10
293.1768622308957
 20
-273.2673183812683
 30
0.0
  0
VERTEX
  5
E7
  8
CUT_1_5_FINAL
 10
251.6768622308957
 20
-273.2673183812683
 30
0.0
 42
0.4142135623731059
  0
VERTEX
  5
E8
  8
CUT_1_5_FINAL
 10
250.6768622308957
 20
-274.2673183812683
 30
0.0
  0
VERTEX
  5
E9
  8
CUT_1_5_FINAL
 10
250.6768622308957
 20
-311.8760988383721
 30
0.0
  0
VERTEX
  5
EA
  8
CUT_1_5_FINAL
 10
250.6768622308962
 20
-315.2673183812682
 30
0.0
  0
VERTEX
  5
EB
  8
CUT_1_5_FINAL
 10
251.6770000000106
 20
-315.2673183812682
 30
0.0
  0
VERTEX
  5
EC
  8
CUT_1_5_FINAL
 10
251.6770000000106
 20
-316.2673183812682
 30
0.0
  0
VERTEX
  5
ED
  8
CUT_1_5_FINAL
 10
250.6768622308962
 20
-316.2673183812682
 30
0.0
  0
SEQEND
  5
10A
  8
CUT_1_5_FINAL
  0
POLYLINE
  5
71
  8
CUT_1_5_FINAL
 66
     1
 10
0.0
 20
0.0
 30
0.0
 70
     1
  0
VERTEX
  5
EE
  8
CUT_1_5_FINAL
 10
257.218902391199
 20
-350.5096020350889
 30
0.0
 42
-0.4142135623730951
  0
VERTEX
  5
EF
  8
CUT_1_5_FINAL
 10
254.2189023911991
 20
-353.5096020350888
 30
0.0
 42
-0.4142135623730951
  0
VERTEX
  5
F0
  8
CUT_1_5_FINAL
 10
251.2189023911992
 20
-350.5096020350889
 30
0.0
 42
-0.4142135623730951
  0
VERTEX
  5
F1
  8
CUT_1_5_FINAL
 10
254.2189023911991
 20
-347.5096020350889
 30
0.0
 42
-0.4142135623730951
  0
SEQEND
  5
10B
  8
CUT_1_5_FINAL
  0
POLYLINE
  5
72
  8
CUT_1_5_FINAL
 66
     1
 10
0.0
 20
0.0
 30
0.0
 70
     1
  0
VERTEX
  5
F2
  8
CUT_1_5_FINAL
 10
256.4268622308957
 20
-308.4173183812683
 30
0.0
 42
0.4142135623730951
  0
VERTEX
  5
F3
  8
CUT_1_5_FINAL
 10
254.8268622308956
 20
-310.0173183812683
 30
0.0
 42
0.4142135623730951
  0
VERTEX
  5
F4
  8
CUT_1_5_FINAL
 10
256.4268622308957
 20
-311.6173183812683
 30
0.0
 42
0.4142135623730951
  0
VERTEX
  5
F5
  8
CUT_1_5_FINAL
 10
258.0268622308956
 20
-310.0173183812683
 30
0.0
 42
0.4142135623730951
  0
SEQEND
  5
10C
  8
CUT_1_5_FINAL
  0
POLYLINE
  5
73
  8
CUT_1_5_FINAL
 66
     1
 10
0.0
 20
0.0
 30
0.0
 70
     1
  0
VERTEX
  5
F6
  8
CUT_1_5_FINAL
 10
271.9268622308957
 20
-283.0173183812683
 30
0.0
 42
0.4142135623730951
  0
VERTEX
  5
F7
  8
CUT_1_5_FINAL
 10
260.4268622308957
 20
-294.5173183812683
 30
0.0
 42
0.4142135623730951
  0
VERTEX
  5
F8
  8
CUT_1_5_FINAL
 10
271.9268622308957
 20
-306.0173183812683
 30
0.0
 42
0.4142135623730951
  0
VERTEX
  5
F9
  8
CUT_1_5_FINAL
 10
283.4268622308957
 20
-294.5173183812683
 30
0.0
 42
0.4142135623730951
  0
SEQEND
  5
10D
  8
CUT_1_5_FINAL
  0
POLYLINE
  5
74
  8
CUT_1_5_FINAL
 66
     1
 10
0.0
 20
0.0
 30
0.0
 70
     1
  0
VERTEX
  5
FA
  8
CUT_1_5_FINAL
 10
287.4268622308957
 20
-308.4173183812683
 30
0.0
 42
0.4142135623730951
  0
VERTEX
  5
FB
  8
CUT_1_5_FINAL
 10
285.8268622308956
 20
-310.0173183812683
 30
0.0
 42
0.4142135623730951
  0
VERTEX
  5
FC
  8
CUT_1_5_FINAL
 10
287.4268622308957
 20
-311.6173183812683
 30
0.0
 42
0.4142135623730951
  0
VERTEX
  5
FD
  8
CUT_1_5_FINAL
 10
289.0268622308956
 20
-310.0173183812683
 30
0.0
 42
0.4142135623730951
  0
SEQEND
  5
10E
  8
CUT_1_5_FINAL
  0
POLYLINE
  5
75
  8
CUT_1_5_FINAL
 66
     1
 10
0.0
 20
0.0
 30
0.0
 70
     1
  0
VERTEX
  5
FE
  8
CUT_1_5_FINAL
 10
303.1766925016888
 20
-320.7677952913265
 30
0.0
 42
0.4142135623730951
  0
VERTEX
  5
FF
  8
CUT_1_5_FINAL
 10
301.6766925016888
 20
-322.2677952913265
 30
0.0
 42
0.4142135623730951
  0
VERTEX
  5
100
  8
CUT_1_5_FINAL
 10
303.1766925016888
 20
-323.7677952913264
 30
0.0
 42
0.4142135623730951
  0
VERTEX
  5
101
  8
CUT_1_5_FINAL
 10
304.6766925016886
 20
-322.2677952913264
 30
0.0
 42
0.4142135623730951
  0
SEQEND
  5
10F
  8
CUT_1_5_FINAL
  0
POLYLINE
  5
76
  8
CUT_1_5_FINAL
 66
     1
 10
0.0
 20
0.0
 30
0.0
 70
     1
  0
VERTEX
  5
102
  8
CUT_1_5_FINAL
 10
287.4268622308957
 20
-277.4173183812683
 30
0.0
 42
0.4142135623730951
  0
VERTEX
  5
103
  8
CUT_1_5_FINAL
 10
285.8268622308956
 20
-279.0173183812683
 30
0.0
 42
0.4142135623730951
  0
VERTEX
  5
104
  8
CUT_1_5_FINAL
 10
287.4268622308957
 20
-280.6173183812683
 30
0.0
 42
0.4142135623730951
  0
VERTEX
  5
105
  8
CUT_1_5_FINAL
 10
289.0268622308956
 20
-279.0173183812683
 30
0.0
 42
0.4142135623730951
  0
SEQEND
  5
110
  8
CUT_1_5_FINAL
  0
POLYLINE
  5
77
  8
CUT_1_5_FINAL
 66
     1
 10
0.0
 20
0.0
 30
0.0
 70
     1
  0
VERTEX
  5
106
  8
CUT_1_5_FINAL
 10
256.4268622308957
 20
-277.4173183812683
 30
0.0
 42
0.4142135623730951
  0
VERTEX
  5
107
  8
CUT_1_5_FINAL
 10
254.8268622308956
 20
-279.0173183812683
 30
0.0
 42
0.4142135623730951
  0
VERTEX
  5
108
  8
CUT_1_5_FINAL
 10
256.4268622308957
 20
-280.6173183812683
 30
0.0
 42
0.4142135623730951
  0
VERTEX
  5
109
  8
CUT_1_5_FINAL
 10
258.0268622308956
 20
-279.0173183812683
 30
0.0
 42
0.4142135623730951
  0
SEQEND
  5
111
  8
CUT_1_5_FINAL
  0
ENDSEC
  0
EOF
